<?xml version="1.0" encoding="utf-8" ?>
<svg xmlns="http://www.w3.org/2000/svg" xmlns:xlink="http://www.w3.org/1999/xlink" width="1024" height="1024">
	<path fill="#FEFEFE" d="M0 0L1024 0L1024 1024L0 1024L0 0Z"/>
	<path fill="#06041D" d="M338.302 437.683C352.088 435.23 368.402 440.753 380.856 446.114Q376.589 461.103 372.691 476.192C363.687 471.205 354.857 468.04 344.401 468.642C340.21 468.883 335.436 469.963 332.643 473.38C331.476 474.808 331.317 476.577 331.526 478.347C332.637 487.744 353.265 493.482 360.765 497.171Q364.685 499.094 368.356 501.458Q372.026 503.822 375.398 506.596C384.102 513.841 389.064 523.387 390.076 534.694C391.099 546.121 387.307 559.968 379.801 568.751C370.725 579.371 356.845 583.518 343.377 584.638C334.415 585.677 325.66 584.202 317.024 581.893C312.236 568.172 307.917 554.293 303.118 540.57C314.763 548.091 326.853 554.82 341.292 553.389C345.985 552.924 351.741 551.035 354.708 547.132C356.402 544.903 356.864 542.207 356.455 539.473C355.941 536.032 353.957 533.24 351.403 530.972C341.575 522.244 324.951 518.068 313.786 509.538C305.351 503.093 300.01 494.53 298.662 483.95C297.334 473.527 299.475 461.877 306.027 453.456C313.859 443.39 326.07 439.22 338.302 437.683Z"/>
	<path fill="#06041D" d="M431.306 437.674C447.115 435.935 460.131 440.196 474.561 445.944Q470.515 461.068 467.204 476.369C460.109 472.366 453.35 469.592 445.183 468.692C439.659 468.083 432.187 467.826 427.708 471.629C426.214 472.897 425.239 474.647 425.143 476.624C424.598 487.948 446.518 492.712 454.651 496.842C461.699 500.42 468.402 504.907 473.633 510.894C481.634 520.054 484.255 531.737 483.419 543.689C482.586 555.59 477.672 565.804 468.561 573.552C456.435 583.865 438.848 586.046 423.509 584.797C408.916 583.815 395.703 578.037 384.607 568.652C389.502 558.913 393.401 549.376 396.363 538.869C408.048 547.735 421.681 555.505 437.01 553.349C441.31 552.744 445.67 550.79 448.285 547.218C450.061 544.791 451.293 541.971 450.726 538.915C448.565 527.262 428.449 520.965 418.902 516.318Q413.318 513.59 408.276 509.958C400.012 503.941 394.194 495.854 392.69 485.609C391.109 474.841 392.739 462.756 399.41 453.886C407.049 443.729 419.105 439.306 431.306 437.674Z"/>
	<path fill="#06041D" d="M232.814 439.024L265.801 439.059C273.285 464.071 282.4 488.665 290.463 513.5C297.902 536.411 304.503 560.917 313.611 583.131C302.622 583.413 291.571 583.29 280.581 583.134Q277.056 570.775 273.735 558.359L265.958 558.244Q245.879 558.015 225.8 558.253C222.634 566.266 220.693 575.109 218.395 583.406C207.28 583.52 196.15 583.402 185.033 583.394C200.6 535.174 217.738 487.389 232.814 439.024Z"/>
	<path fill="#FEFEFE" d="M249.759 481.398C251.928 485.001 254.266 496.554 255.62 501.224Q259.736 515.376 264.381 529.363L250.75 529.352L235.513 529.282Q242.2 505.21 249.759 481.398Z"/>
	<path fill="#06041D" d="M755.242 437.188C755.998 437.101 756.737 437.025 757.496 436.979Q759.369 436.864 761.246 436.842Q763.123 436.82 764.999 436.891Q766.875 436.962 768.744 437.125Q770.614 437.289 772.474 437.544Q774.333 437.8 776.178 438.147Q778.023 438.494 779.848 438.932Q781.673 439.37 783.474 439.898Q785.276 440.425 787.049 441.041Q788.822 441.657 790.562 442.36Q792.303 443.063 794.006 443.851Q795.71 444.638 797.372 445.51Q799.035 446.381 800.652 447.333Q802.27 448.285 803.838 449.316Q805.407 450.347 806.922 451.455Q808.438 452.562 809.897 453.743Q811.356 454.923 812.755 456.175Q813.451 456.79 814.131 457.423Q814.811 458.055 815.475 458.704Q816.139 459.354 816.787 460.019Q817.435 460.685 818.066 461.367Q818.697 462.048 819.31 462.745Q819.924 463.443 820.52 464.155Q821.116 464.867 821.694 465.594Q822.272 466.321 822.832 467.062Q823.392 467.804 823.933 468.558Q824.474 469.313 824.996 470.082Q825.518 470.85 826.02 471.631Q826.523 472.412 827.006 473.205Q827.489 473.999 827.952 474.804Q828.415 475.609 828.857 476.426Q829.3 477.242 829.722 478.069Q830.145 478.897 830.546 479.734Q830.947 480.572 831.328 481.419Q831.708 482.267 832.067 483.123Q832.426 483.98 832.763 484.845Q833.101 485.71 833.417 486.584Q833.732 487.457 834.026 488.338Q834.32 489.219 834.592 490.108Q834.864 490.996 835.113 491.89Q835.362 492.785 835.59 493.686Q835.817 494.586 836.021 495.492Q836.225 496.398 836.407 497.309Q836.589 498.22 836.748 499.135Q836.907 500.05 837.043 500.969Q837.179 501.888 837.292 502.81Q837.405 503.732 837.495 504.656Q837.585 505.58 837.652 506.507Q837.718 507.433 837.762 508.361C838.748 527.505 832.799 546.17 819.996 560.488C825.551 567.553 831.979 575.572 835.966 583.642L804.926 583.652C803.288 581.45 801.941 579.015 800.524 576.666C796.838 578.367 793.118 579.99 789.261 581.272C769.448 587.857 747.054 585.735 728.508 576.315C708.946 566.379 697.706 549.575 690.99 529.241C692.643 546.746 691.601 565.92 691.603 583.612L658.301 583.546C658.116 545.38 658.75 507.199 658.014 469.042Q643.74 469.158 629.471 468.735L629.076 583.48L595.162 583.423Q594.909 535.335 595.303 487.25L595.281 469.003Q557.455 468.764 519.629 468.975C519.554 477.809 519.693 486.654 519.743 495.489Q542.027 495.2 564.312 495.299Q564.43 510.36 564.026 525.417L519.539 525.455L519.619 553.101C536.752 553.408 553.899 553.125 571.036 553.224L570.793 583.482L486.518 583.456L486.537 439.495L691.652 439.491C691.593 456.417 690.882 473.612 691.676 490.507C694.363 480.996 698.242 472.642 704.397 464.859C717.335 448.498 734.665 439.537 755.242 437.188Z"/>
	<path fill="#FEFEFE" d="M761.843 469.214C767.717 468.882 773.964 470.458 779.316 472.796C789.613 477.293 797.336 485.655 801.388 496.108C806.424 509.098 804.221 521.571 798.785 533.983C795.273 528.562 791.79 523.14 787.979 517.921Q773.123 518.045 758.266 517.982C762.233 524.787 766.815 531.346 771.095 537.965L778.881 549.502C774.693 551.1 770.468 552.206 765.99 552.553C755.251 553.386 744.672 550.259 736.464 543.195Q735.657 542.495 734.885 541.756Q734.113 541.018 733.378 540.242Q732.643 539.467 731.947 538.656Q731.251 537.845 730.595 537.002Q729.94 536.158 729.327 535.283Q728.713 534.408 728.144 533.504Q727.574 532.6 727.049 531.669Q726.525 530.739 726.046 529.783Q725.568 528.828 725.137 527.85Q724.706 526.873 724.323 525.875Q723.941 524.878 723.608 523.862Q723.274 522.847 722.991 521.817Q722.708 520.787 722.476 519.744Q722.244 518.701 722.063 517.648Q721.882 516.595 721.753 515.534Q721.624 514.474 721.547 513.408Q721.471 512.383 721.446 511.356Q721.421 510.329 721.448 509.302Q721.474 508.275 721.551 507.25Q721.629 506.226 721.757 505.207Q721.885 504.187 722.063 503.175Q722.242 502.164 722.471 501.162Q722.7 500.16 722.978 499.171Q723.256 498.182 723.583 497.208Q723.91 496.234 724.285 495.278Q724.66 494.321 725.083 493.385Q725.505 492.448 725.973 491.533Q726.441 490.619 726.954 489.729Q727.467 488.839 728.024 487.975Q728.581 487.112 729.18 486.277Q729.779 485.442 730.418 484.638Q731.058 483.834 731.737 483.063C739.706 473.946 749.985 470.061 761.843 469.214Z"/>
</svg>
